PathFileType	4	(X/Y/Z)	C:/Users/beibeiliu/ov580/test_trc/capture2\sequence.28_training_dense_right.trc
DataRate	CameraRate	NumFrames	NumMarkers	Units	OrigDataRate	OrigDataStartFrame	OrigNumFrames
120	120	16	19	mm	120	101	400
Frame#	Time	ThumbCMC			ThumbMCP			ThumbIP			ThumbTip			IndexMCP			IndexPIP			IndexTip			MiddleMCP			MiddlePIP			MiddleTip			RingMCP			RingPIP			RingTip			PinkyMCP			PinkyPIP			PinkyTip			BackHand1			BackHand2			BackHand3	
		X0	Y0	Z0	X1	Y1	Z1	X2	Y2	Z2	X3	Y3	Z3	X4	Y4	Z4	X5	Y5	Z5	X6	Y6	Z6	X7	Y7	Z7	X8	Y8	Z8	X9	Y9	Z9	X10	Y10	Z10	X11	Y11	Z11	X12	Y12	Z12	X13	Y13	Z13	X14	Y14	Z14	X15	Y15	Z15	X16	Y16	Z16	X17	Y17	Z17	X18	Y18	Z18	
100	0.833333	174.22	27.1802	50.8694	170.521	40.727	24.0624	162.095	40.3919	-2.12989	145.959	26.6704	-20.7313	156.94	1.88101	-19.6906	146.97	2.5404	-44.6391	133.321	-1.73444	-62.3522	142.669	-11.6044	-22.9797	129.434	-11.5538	-45.6144	118.876	-10.9749	-68.8329	128.224	-20.8829	-13.9008	116.57	-18.523	-36.0598	104.305	-17.5705	-61.571	116.732	-27.0905	2.28486	108.512	-21.9817	-17.0805	97.9946	-24.5719	-40.6486	151.284	-26.3362	33.6682	156.312	-30.3811	62.1696	176.482	-8.01421	40.3322	
101	0.841667	175.727	27.8009	47.0879	168.134	36.773	23.115	164.24	38.4472	-6.55138	153.677	33.6472	-23.8897	158.907	4.28525	-23.4385	147.529	4.78765	-43.6918	130.298	0.391342	-65.4323	141.837	-11.4594	-25.026	130.677	-8.33524	-43.9125	116.444	-8.79242	-71.8261	129.788	-18.1956	-16.0498	115.552	-16.8308	-35.4242	104.711	-15.0497	-59.2552	117.741	-25.1671	3.25949	106.318	-20.9087	-18.6926	98.7633	-23.6622	-41.0599	150.36	-28.0067	36.8586	158.097	-26.9077	63.6449	175.017	-9.06069	40.4409	
102	0.85	172.93	25.2446	49.3013	169.66	38.1931	23.7968	165.25	38.4427	-6.49342	154.501	32.8704	-22.3511	158.049	2.57043	-20.1981	145.601	3.43738	-41.9891	129.554	1.92502	-63.8298	142.426	-12.0114	-22.7098	127.848	-9.25785	-45.4761	111.683	-8.7175	-71.4106	127.853	-20.4241	-13.1421	115.744	-16.609	-34.0445	104.137	-14.5219	-57.1296	116.874	-26.2623	-0.520144	105.681	-21.951	-17.5301	96.7723	-23.4208	-38.8527	151.431	-29.2907	31.5038	158.337	-29.9864	65.0017	174.89	-10.1101	41.6288	
103	0.858333	174.963	27.5829	50.9427	168.369	36.683	24.8392	164.139	35.5583	-2.60749	156.019	29.5033	-27.3377	155.607	0.679936	-21.5964	144.974	6.07335	-45.0482	130.204	6.85869	-65.8785	141.001	-12.9627	-21.3773	129.275	-5.76535	-45.3541	115.359	-2.53588	-68.5124	128.669	-19.6302	-15.8054	115.063	-16.6882	-32.2922	102.267	-13.1882	-54.8217	115.731	-28.6473	-0.81853	107.909	-22.6605	-16.3907	99.0152	-23.1843	-38.5243	150.736	-32.1101	34.1709	159.586	-29.601	64.6689	178.776	-7.68686	42.4277	
104	0.866667	171.166	24.9355	52.5408	169.824	38.489	22.5279	163.365	34.336	-3.54535	155.904	29.9292	-23.5543	161.759	3.90185	-20.8501	147.44	8.09997	-45.1888	128.291	7.50009	-62.5099	145.852	-9.48157	-25.0294	129.456	-6.1853	-43.2994	113.232	-1.5341	-65.9787	129.116	-20.9872	-15.1424	117.305	-13.9193	-35.2975	99.7514	-10.7164	-55.1001	118.968	-29.8429	1.33144	107.384	-23.6054	-17.3608	99.0918	-19.5132	-42.9488	153.784	-32.1182	37.7733	158.089	-29.7425	67.1595	175.118	-9.78254	45.3371	
105	0.875	172.417	25.3424	50.6487	167.474	38.6865	22.565	163.004	36.5533	-6.61234	154.982	28.5574	-26.9583	161.516	3.18003	-22.3699	148.284	8.74393	-42.7797	130.447	10.6856	-60.4946	145.86	-10.5729	-23.2356	131.476	-5.44422	-40.7715	112.87	2.93199	-64.7311	131.419	-18.8064	-17.4849	117.956	-11.9213	-35.5236	103.713	-6.68507	-52.6862	120.534	-30.0979	0.103207	108.935	-21.197	-20.8035	98.3834	-18.0353	-40.3618	154.103	-31.9768	35.0277	160.811	-28.7177	65.6063	177.844	-7.42708	42.6089	
106	0.883333	174.011	28.8695	50.7544	166.853	39.1645	23.1194	162.647	35.2743	-6.28775	155.353	29.4975	-24.4496	160.986	0.415924	-20.3467	148.234	5.36388	-39.6828	127.779	11.0749	-60.0298	145.416	-12.8396	-22.5475	130.176	-5.47264	-42.9824	109.609	6.07828	-64.6482	133.965	-20.7895	-16.2194	119.172	-13.6705	-32.4149	104.155	-3.25032	-50.3009	121.086	-33.1935	2.26267	106.224	-24.4037	-20.1232	94.6438	-19.7775	-37.5236	154.396	-36.7904	36.5698	158.605	-32.0138	68.417	179.007	-9.66471	43.2507	
107	0.891667	172.673	28.0512	51.6693	163.529	33.9089	23.0772	162.155	32.34	-6.32405	157.366	28.1618	-27.7982	166.768	-0.117956	-19.7363	152.103	8.53385	-43.2903	127.343	16.1141	-58.9855	150.17	-12.889	-23.7139	134.092	-3.54661	-41.6772	111.159	5.93823	-57.0028	136.801	-22.653	-14.332	116.561	-15.8391	-33.928	103.269	-0.699332	-48.183	122.609	-34.7673	-0.624515	111.408	-27.7211	-17.5769	98.0394	-15.5699	-38.9698	155.286	-36.6407	38.371	161.289	-30.7654	66.0809	180.229	-9.9345	47.2376	
108	0.9	171.335	24.9306	52.2005	165.678	34.7812	20.0659	163.974	36.0045	-7.2887	157.579	25.1942	-28.0557	169.824	-2.24524	-17.6457	151.937	7.28665	-42.9843	129.244	19.3388	-55.419	156.564	-14.4156	-18.1169	134.952	-7.15817	-39.916	113.868	12.0426	-53.7047	138.536	-25.1278	-16.261	119.391	-17.3358	-33.3775	100.365	1.26226	-46.8442	125.461	-35.8004	-2.88514	114.56	-27.7651	-18.1641	97.0049	-14.9855	-38.0223	156.358	-37.0845	40.5778	163.525	-29.9274	67.5167	182.868	-11.834	48.4463	
109	0.908333	173.902	26.4491	50.9358	165.14	34.1528	23.058	162.893	32.7318	-8.64275	156.892	22.9976	-28.8623	174.593	-1.83935	-16.0273	157.63	6.49423	-39.1228	129.623	20.9642	-51.3418	155.36	-17.4705	-21.2255	140.302	-3.23964	-39.9748	113.698	12.6486	-48.5245	140.043	-29.6982	-13.7761	123.112	-20.0052	-31.3082	104.258	2.44886	-41.3738	130.827	-37.8044	-0.96982	113.967	-28.3427	-20.1336	100.168	-10.3014	-34.4305	159.572	-36.6051	41.1849	162.15	-32.747	69.8995	181.232	-10.9097	51.1551	
110	0.916667	175.819	25.0017	47.7999	164.856	34.5274	20.685	163.882	36.4262	-6.53411	158.134	25.8019	-31.3494	173.994	-6.83059	-14.6436	155.875	5.92051	-39.5024	133.483	23.0711	-46.3788	162.782	-17.612	-18.0084	138.006	-3.85002	-40.0753	113.988	17.2453	-42.5006	144.622	-31.5468	-10.8248	126.915	-15.5078	-33.8183	109.951	4.51079	-36.3284	131.448	-40.8537	0.285392	118.454	-28.6803	-19.1064	99.0491	-8.56246	-31.7566	159.62	-38.1421	43.7638	161.45	-30.0639	73.3017	184.604	-13.2662	50.0317	
111	0.925	173.853	21.9939	48.7149	164.005	33.196	22.4152	163.442	36.3022	-4.90255	157.2	26.8513	-28.3842	176.335	-8.0661	-16.1157	158.288	4.62394	-39.9115	134.942	24.0626	-41.5445	162.888	-21.505	-18.1107	144.792	-6.04111	-39.0761	116.366	20.3678	-34.9793	145.936	-34.3339	-11.8324	129.788	-17.9278	-31.8191	110.195	8.35869	-30.8725	134.556	-40.9046	3.23089	118.83	-29.9836	-18.914	103.177	-7.47856	-26.943	164.451	-37.2217	40.0003	161.458	-34.0127	71.7592	185.973	-12.9772	54.2257	
112	0.933333	175.293	22.4226	47.6859	163.868	30.3093	19.5684	161.917	35.2946	-5.75882	155.805	28.1284	-30.8752	178.66	-7.19843	-16.2477	157.449	2.33478	-40.0827	136.168	19.3265	-39.4689	164.67	-20.1904	-22.6091	143.713	-9.82398	-39.4483	121.621	19.7229	-31.2058	150.406	-34.1086	-14.8246	129.991	-18.5361	-33.5932	111.756	8.68528	-25.6312	134.269	-43.7542	1.67295	116.999	-31.6233	-21.0091	106.032	-3.73072	-23.2074	164.045	-41.3368	39.6839	163.616	-33.8722	70.153	184.616	-13.1307	50.5458	
113	0.941667	176.407	25.7704	48.12	163.725	37.496	20.4682	161.489	37.1506	-10.0803	154.307	31.6825	-30.2774	177.871	-10.8048	-16.8668	162.686	0.312231	-40.9174	132.564	19.8588	-38.6493	162.943	-25.7529	-19.2246	139.731	-9.00439	-39.8207	123.352	14.8249	-29.1982	151.396	-34.3942	-14.9836	128.142	-22.6354	-33.4739	114.414	8.26171	-23.4001	135.534	-45.0665	-1.70045	122.128	-30.413	-22.9119	107.258	-5.84494	-22.1185	164.069	-38.559	38.3516	163.8	-29.8467	71.6257	185.315	-11.4264	51.545	
114	0.95	175.223	25.3391	44.7105	161.797	35.7697	20.608	157.712	37.0522	-5.46853	151.542	29.6953	-31.7445	178.954	-9.55245	-18.5054	159.99	-0.461904	-41.885	134.09	17.7698	-40.1748	163.947	-27.4455	-21.9638	146.185	-10.809	-40.4737	126.464	15.0765	-26.9505	153.508	-35.3735	-15.8127	129.757	-20.9353	-34.734	115.556	2.92195	-24.2146	136.881	-47.341	0.74498	121.872	-32.6851	-23.2188	109.116	-7.00722	-20.8078	163.936	-38.8483	43.1244	167.159	-30.7661	66.9701	186.14	-9.79204	51.0068	
115	0.958333	174.744	28.1777	47.688	160.989	39.7559	19.1885	156.43	41.9747	-7.18248	147.289	30.6644	-29.6086	178.77	-10.8499	-16.8876	161.217	-0.200271	-43.5226	136.817	22.1627	-43.0198	167.781	-24.6221	-22.0844	142.134	-9.19289	-41.4011	127.619	19.1307	-23.5263	151.969	-37.2367	-11.9725	134.718	-22.0758	-35.0217	117.509	3.67457	-22.4018	140.372	-44.3115	-0.73561	126.551	-32.0957	-23.5602	115.384	-5.81815	-22.2483	164.616	-35.9808	42.2805	165.881	-28.2967	68.987	186.891	-13.2002	48.6251	
